<svg xmlns="http://www.w3.org/2000/svg" width="512" height="512" fill="none" viewBox="0 0 512 512">
  <g clip-path="url(#clip0)">
    <path fill="#999" d="M408.798 448.876h-13.42l-82.874-82.873c9.599-15.715 15.136-34.17 15.136-53.894 0-57.181-46.521-103.702-103.703-103.702-57.181 0-103.702 46.521-103.702 103.702 0 57.182 46.521 103.703 103.702 103.703 19.724 0 38.179-5.537 53.894-15.135l82.874 82.873v13.42H167.327v-80.156H87.17V127.248h273.535v273.034h15.029V112.219h-240.47V79.154h248.987V64.125H120.235v48.094H72.141v315.222L156.7 512h219.034v-28.45l19.644-19.644h28.45V127.749h-15.03v321.127zm-256.501 37.468l-54.5-54.501h54.5v54.501zm-17.033-174.235c0-48.894 39.779-88.673 88.673-88.673 48.895 0 88.674 39.779 88.674 88.673 0 48.895-39.779 88.674-88.674 88.674-48.894 0-88.673-39.779-88.673-88.674zm168.37 66.277l13.88 13.88-13.42 13.42-13.88-13.88a104.77 104.77 0 0013.42-13.42zm64.585 91.425l-53.498-53.498 13.42-13.42 53.498 53.498-13.42 13.42z"/>
    <path fill="#999" d="M223.937 240.47c-39.502 0-71.64 32.137-71.64 71.64 0 39.502 32.138 71.64 71.64 71.64 39.503 0 71.64-32.138 71.64-71.64 0-39.503-32.137-71.64-71.64-71.64zm0 128.25c-31.215 0-56.61-25.395-56.61-56.61s25.395-56.611 56.61-56.611 56.611 25.396 56.611 56.611c0 31.215-25.396 56.61-56.611 56.61z"/>
    <path fill="#999" d="M225.041 272.557c-6.491-.291-12.667 2.006-17.364 6.492a23.657 23.657 0 00-7.286 17.029h15.03c0-2.348.937-4.537 2.636-6.16a8.484 8.484 0 016.293-2.346c4.268.196 7.899 3.827 8.095 8.095a8.523 8.523 0 01-3.527 7.322c-7.824 5.656-12.495 15.059-12.495 25.152h15.029c0-5.283 2.345-10.134 6.272-12.973a23.507 23.507 0 009.733-20.192c-.552-12.018-10.399-21.866-22.416-22.419zM216.423 336.157h15.029v16.031h-15.029v-16.031zM183.859 168.329h16.031v15.029h-16.031v-15.029zM215.922 168.329h16.031v15.029h-16.031v-15.029zM247.984 168.329h16.032v15.029h-16.032v-15.029zM119.734 47.092c12.983 0 23.546-10.563 23.546-23.546C143.28 10.563 132.717 0 119.734 0 106.75 0 96.188 10.563 96.188 23.546c0 12.983 10.562 23.546 23.546 23.546zm0-32.063c4.696 0 8.516 3.82 8.516 8.517 0 4.696-3.82 8.517-8.516 8.517s-8.517-3.82-8.517-8.517c0-4.696 3.821-8.517 8.517-8.517zM416.313 64.125c-12.983 0-23.546 10.563-23.546 23.546 0 12.983 10.563 23.546 23.546 23.546 12.983 0 23.546-10.563 23.546-23.546 0-12.983-10.563-23.546-23.546-23.546zm0 32.063c-4.696 0-8.516-3.82-8.516-8.517 0-4.696 3.82-8.517 8.516-8.517s8.517 3.82 8.517 8.517c0 4.696-3.821 8.517-8.517 8.517zM55.108 55.608h-15.03v16.533H23.546V87.17h16.532v16.532h15.03V87.17H71.64V72.14H55.108V55.609zM488.454 152.297h-16.532v-16.532h-15.03v16.532H440.36v15.03h16.532v16.532h15.03v-16.532h16.532v-15.03z"/>
  </g>
  <defs>
    <clipPath id="clip0">
      <path fill="#fff" d="M0 0h512v512H0z"/>
    </clipPath>
  </defs>
</svg>
